<svg xmlns="http://www.w3.org/2000/svg" xmlns:xlink="http://www.w3.org/1999/xlink" width="500" zoomAndPan="magnify" viewBox="0 0 375 374.999991" height="500" preserveAspectRatio="xMidYMid meet" version="1.0"><defs><g/><clipPath id="id1"><path d="M 159 114.507812 L 171 114.507812 L 171 126 L 159 126 Z M 159 114.507812 " clip-rule="nonzero"/></clipPath><clipPath id="id2"><path d="M 148.15625 122 L 159 122 L 159 134 L 148.15625 134 Z M 148.15625 122 " clip-rule="nonzero"/></clipPath><clipPath id="id3"><path d="M 204 114.507812 L 216 114.507812 L 216 126 L 204 126 Z M 204 114.507812 " clip-rule="nonzero"/></clipPath><clipPath id="id4"><path d="M 216 122 L 226.894531 122 L 226.894531 134 L 216 134 Z M 216 122 " clip-rule="nonzero"/></clipPath><clipPath id="id5"><path d="M 159 191 L 171 191 L 171 202.257812 L 159 202.257812 Z M 159 191 " clip-rule="nonzero"/></clipPath><clipPath id="id6"><path d="M 148.15625 183 L 159 183 L 159 194 L 148.15625 194 Z M 148.15625 183 " clip-rule="nonzero"/></clipPath><clipPath id="id7"><path d="M 204 191 L 216 191 L 216 202.257812 L 204 202.257812 Z M 204 191 " clip-rule="nonzero"/></clipPath><clipPath id="id8"><path d="M 216 183 L 226.894531 183 L 226.894531 194 L 216 194 Z M 216 183 " clip-rule="nonzero"/></clipPath></defs><rect x="-37.5" width="450" fill="rgb(100%, 100%, 100%)" y="-37.499999" height="449.999989" fill-opacity="1"/><rect x="-37.5" width="450" fill="rgb(1.179504%, 8.239746%, 27.839661%)" y="-37.499999" height="449.999989" fill-opacity="1"/><rect x="-37.5" width="450" fill="rgb(100%, 100%, 100%)" y="-37.499999" height="449.999989" fill-opacity="1"/><rect x="-37.5" width="450" fill="rgb(1.179504%, 8.239746%, 27.839661%)" y="-37.499999" height="449.999989" fill-opacity="1"/><g fill="rgb(100%, 100%, 100%)" fill-opacity="1"><g transform="translate(108.693312, 238.787416)"><g><path d="M 20.296875 0 L 16.921875 0 L 6.09375 -14.578125 L 6.09375 0 L 2.671875 0 L 2.671875 -20.328125 L 6.03125 -20.328125 L 16.921875 -5.71875 L 16.921875 -20.328125 L 20.296875 -20.328125 Z M 20.296875 0 "/></g></g></g><g fill="rgb(100%, 100%, 100%)" fill-opacity="1"><g transform="translate(133.154043, 238.787416)"><g><path d="M 4.53125 -8.046875 L 10.5625 -8.046875 L 10.5625 -12.859375 L 13.765625 -12.859375 L 13.765625 -8.046875 L 16.71875 -8.046875 L 16.71875 -5 L 13.765625 -5 L 13.765625 0 L 10.5625 0 L 10.5625 -5 L 0.875 -5 L 0.875 -7.546875 L 7.8125 -20.328125 L 11.125 -20.328125 Z M 4.53125 -8.046875 "/></g></g></g><g fill="rgb(100%, 100%, 100%)" fill-opacity="1"><g transform="translate(152.014769, 238.787416)"><g><path d="M 24.15625 0 L 20.984375 0 L 20.953125 -15.1875 L 14.546875 -2.125 L 12.3125 -2.125 L 5.890625 -15.1875 L 5.890625 0 L 2.671875 0 L 2.671875 -20.328125 L 6.734375 -20.328125 L 13.4375 -6.828125 L 20.125 -20.328125 L 24.15625 -20.328125 Z M 24.15625 0 "/></g></g></g><g fill="rgb(100%, 100%, 100%)" fill-opacity="1"><g transform="translate(180.334574, 238.787416)"><g><path d="M 4.53125 -8.046875 L 10.5625 -8.046875 L 10.5625 -12.859375 L 13.765625 -12.859375 L 13.765625 -8.046875 L 16.71875 -8.046875 L 16.71875 -5 L 13.765625 -5 L 13.765625 0 L 10.5625 0 L 10.5625 -5 L 0.875 -5 L 0.875 -7.546875 L 7.8125 -20.328125 L 11.125 -20.328125 Z M 4.53125 -8.046875 "/></g></g></g><g fill="rgb(100%, 100%, 100%)" fill-opacity="1"><g transform="translate(199.1953, 238.787416)"><g><path d="M 15.5625 0 L 11.84375 -6.15625 C 11.644531 -6.132812 11.335938 -6.125 10.921875 -6.125 L 6.09375 -6.125 L 6.09375 0 L 2.671875 0 L 2.671875 -20.328125 L 10.921875 -20.328125 C 13.515625 -20.328125 15.523438 -19.71875 16.953125 -18.5 C 18.390625 -17.289062 19.109375 -15.585938 19.109375 -13.390625 C 19.109375 -11.753906 18.742188 -10.375 18.015625 -9.25 C 17.285156 -8.132812 16.242188 -7.316406 14.890625 -6.796875 L 19.453125 0 Z M 6.09375 -9.203125 L 10.921875 -9.203125 C 14.203125 -9.203125 15.84375 -10.566406 15.84375 -13.296875 C 15.84375 -15.929688 14.203125 -17.25 10.921875 -17.25 L 6.09375 -17.25 Z M 6.09375 -9.203125 "/></g></g></g><g fill="rgb(100%, 100%, 100%)" fill-opacity="1"><g transform="translate(221.653951, 238.787416)"><g><path d="M 11.671875 -20.40625 C 13.097656 -20.40625 14.492188 -20.128906 15.859375 -19.578125 C 17.222656 -19.023438 18.398438 -18.257812 19.390625 -17.28125 L 17.390625 -14.78125 C 16.648438 -15.570312 15.773438 -16.195312 14.765625 -16.65625 C 13.765625 -17.125 12.753906 -17.359375 11.734375 -17.359375 C 9.703125 -17.359375 7.984375 -16.664062 6.578125 -15.28125 C 5.171875 -13.894531 4.46875 -12.207031 4.46875 -10.21875 C 4.46875 -8.207031 5.171875 -6.507812 6.578125 -5.125 C 7.984375 -3.738281 9.703125 -3.046875 11.734375 -3.046875 C 13.835938 -3.046875 15.722656 -3.847656 17.390625 -5.453125 L 19.421875 -3.1875 C 18.378906 -2.164062 17.160156 -1.351562 15.765625 -0.75 C 14.367188 -0.15625 12.960938 0.140625 11.546875 0.140625 C 8.566406 0.140625 6.0625 -0.847656 4.03125 -2.828125 C 2 -4.816406 0.984375 -7.269531 0.984375 -10.1875 C 0.984375 -13.070312 2.015625 -15.492188 4.078125 -17.453125 C 6.140625 -19.421875 8.671875 -20.40625 11.671875 -20.40625 Z M 11.671875 -20.40625 "/></g></g></g><g fill="rgb(100%, 100%, 100%)" fill-opacity="1"><g transform="translate(243.358196, 238.787416)"><g><path d="M 20.296875 0 L 16.859375 0 L 16.859375 -8.421875 L 6.09375 -8.421875 L 6.09375 0 L 2.671875 0 L 2.671875 -20.328125 L 6.09375 -20.328125 L 6.09375 -11.5 L 16.859375 -11.5 L 16.859375 -20.328125 L 20.296875 -20.328125 Z M 20.296875 0 "/></g></g></g><g fill="rgb(21.958923%, 71.369934%, 100%)" fill-opacity="1"><g transform="translate(150.123993, 256.604954)"><g><path d="M 3.40625 -3.6875 C 2.46875 -3.957031 1.785156 -4.285156 1.359375 -4.671875 C 0.929688 -5.066406 0.71875 -5.554688 0.71875 -6.140625 C 0.71875 -6.785156 0.976562 -7.320312 1.5 -7.75 C 2.019531 -8.175781 2.695312 -8.390625 3.53125 -8.390625 C 4.09375 -8.390625 4.597656 -8.28125 5.046875 -8.0625 C 5.492188 -7.84375 5.835938 -7.539062 6.078125 -7.15625 C 6.328125 -6.769531 6.453125 -6.347656 6.453125 -5.890625 L 5.359375 -5.890625 C 5.359375 -6.390625 5.195312 -6.78125 4.875 -7.0625 C 4.5625 -7.34375 4.113281 -7.484375 3.53125 -7.484375 C 2.988281 -7.484375 2.566406 -7.363281 2.265625 -7.125 C 1.960938 -6.894531 1.8125 -6.570312 1.8125 -6.15625 C 1.8125 -5.8125 1.953125 -5.519531 2.234375 -5.28125 C 2.523438 -5.050781 3.015625 -4.835938 3.703125 -4.640625 C 4.390625 -4.453125 4.925781 -4.242188 5.3125 -4.015625 C 5.707031 -3.785156 6 -3.515625 6.1875 -3.203125 C 6.375 -2.890625 6.46875 -2.523438 6.46875 -2.109375 C 6.46875 -1.429688 6.207031 -0.890625 5.6875 -0.484375 C 5.164062 -0.0859375 4.46875 0.109375 3.59375 0.109375 C 3.019531 0.109375 2.484375 0 1.984375 -0.21875 C 1.492188 -0.4375 1.113281 -0.734375 0.84375 -1.109375 C 0.582031 -1.484375 0.453125 -1.914062 0.453125 -2.40625 L 1.546875 -2.40625 C 1.546875 -1.894531 1.726562 -1.492188 2.09375 -1.203125 C 2.46875 -0.921875 2.96875 -0.78125 3.59375 -0.78125 C 4.164062 -0.78125 4.601562 -0.894531 4.90625 -1.125 C 5.21875 -1.363281 5.375 -1.6875 5.375 -2.09375 C 5.375 -2.5 5.226562 -2.8125 4.9375 -3.03125 C 4.65625 -3.25 4.144531 -3.46875 3.40625 -3.6875 Z M 3.40625 -3.6875 "/></g></g></g><g fill="rgb(21.958923%, 71.369934%, 100%)" fill-opacity="1"><g transform="translate(160.148544, 256.604954)"><g><path d="M 5.640625 -3.828125 L 2.046875 -3.828125 L 2.046875 -0.890625 L 6.21875 -0.890625 L 6.21875 0 L 0.953125 0 L 0.953125 -8.28125 L 6.15625 -8.28125 L 6.15625 -7.375 L 2.046875 -7.375 L 2.046875 -4.71875 L 5.640625 -4.71875 Z M 5.640625 -3.828125 "/></g></g></g><g fill="rgb(21.958923%, 71.369934%, 100%)" fill-opacity="1"><g transform="translate(169.883309, 256.604954)"><g><path d="M 7.046875 -2.625 C 6.941406 -1.75 6.617188 -1.070312 6.078125 -0.59375 C 5.535156 -0.125 4.8125 0.109375 3.90625 0.109375 C 2.925781 0.109375 2.140625 -0.238281 1.546875 -0.9375 C 0.960938 -1.632812 0.671875 -2.570312 0.671875 -3.75 L 0.671875 -4.546875 C 0.671875 -5.316406 0.804688 -5.992188 1.078125 -6.578125 C 1.359375 -7.160156 1.75 -7.609375 2.25 -7.921875 C 2.757812 -8.234375 3.34375 -8.390625 4 -8.390625 C 4.882812 -8.390625 5.59375 -8.144531 6.125 -7.65625 C 6.65625 -7.164062 6.960938 -6.484375 7.046875 -5.609375 L 5.953125 -5.609375 C 5.859375 -6.273438 5.648438 -6.753906 5.328125 -7.046875 C 5.015625 -7.335938 4.570312 -7.484375 4 -7.484375 C 3.3125 -7.484375 2.765625 -7.226562 2.359375 -6.71875 C 1.960938 -6.207031 1.765625 -5.472656 1.765625 -4.515625 L 1.765625 -3.71875 C 1.765625 -2.820312 1.953125 -2.109375 2.328125 -1.578125 C 2.710938 -1.046875 3.238281 -0.78125 3.90625 -0.78125 C 4.507812 -0.78125 4.972656 -0.914062 5.296875 -1.1875 C 5.628906 -1.46875 5.847656 -1.945312 5.953125 -2.625 Z M 7.046875 -2.625 "/></g></g></g><g fill="rgb(21.958923%, 71.369934%, 100%)" fill-opacity="1"><g transform="translate(180.578335, 256.604954)"><g><path d="M 6.78125 -8.28125 L 6.78125 -2.65625 C 6.78125 -1.875 6.535156 -1.234375 6.046875 -0.734375 C 5.554688 -0.234375 4.894531 0.046875 4.0625 0.109375 L 3.78125 0.109375 C 2.875 0.109375 2.148438 -0.132812 1.609375 -0.625 C 1.078125 -1.113281 0.804688 -1.785156 0.796875 -2.640625 L 0.796875 -8.28125 L 1.875 -8.28125 L 1.875 -2.671875 C 1.875 -2.066406 2.035156 -1.597656 2.359375 -1.265625 C 2.691406 -0.941406 3.164062 -0.78125 3.78125 -0.78125 C 4.394531 -0.78125 4.863281 -0.941406 5.1875 -1.265625 C 5.519531 -1.597656 5.6875 -2.066406 5.6875 -2.671875 L 5.6875 -8.28125 Z M 6.78125 -8.28125 "/></g></g></g><g fill="rgb(21.958923%, 71.369934%, 100%)" fill-opacity="1"><g transform="translate(191.244946, 256.604954)"><g><path d="M 4 -3.34375 L 2.046875 -3.34375 L 2.046875 0 L 0.953125 0 L 0.953125 -8.28125 L 3.6875 -8.28125 C 4.625 -8.28125 5.34375 -8.066406 5.84375 -7.640625 C 6.34375 -7.210938 6.59375 -6.59375 6.59375 -5.78125 C 6.59375 -5.269531 6.453125 -4.820312 6.171875 -4.4375 C 5.898438 -4.050781 5.515625 -3.765625 5.015625 -3.578125 L 6.96875 -0.0625 L 6.96875 0 L 5.796875 0 Z M 2.046875 -4.234375 L 3.734375 -4.234375 C 4.273438 -4.234375 4.703125 -4.375 5.015625 -4.65625 C 5.335938 -4.9375 5.5 -5.3125 5.5 -5.78125 C 5.5 -6.289062 5.347656 -6.679688 5.046875 -6.953125 C 4.742188 -7.234375 4.300781 -7.375 3.71875 -7.375 L 2.046875 -7.375 Z M 2.046875 -4.234375 "/></g></g></g><g fill="rgb(21.958923%, 71.369934%, 100%)" fill-opacity="1"><g transform="translate(201.530872, 256.604954)"><g><path d="M 2.125 0 L 1.046875 0 L 1.046875 -8.28125 L 2.125 -8.28125 Z M 2.125 0 "/></g></g></g><g fill="rgb(21.958923%, 71.369934%, 100%)" fill-opacity="1"><g transform="translate(207.816677, 256.604954)"><g><path d="M 6.671875 -7.375 L 4.015625 -7.375 L 4.015625 0 L 2.9375 0 L 2.9375 -7.375 L 0.28125 -7.375 L 0.28125 -8.28125 L 6.671875 -8.28125 Z M 6.671875 -7.375 "/></g></g></g><g fill="rgb(21.958923%, 71.369934%, 100%)" fill-opacity="1"><g transform="translate(217.881, 256.604954)"><g><path d="M 3.484375 -4.125 L 5.640625 -8.28125 L 6.890625 -8.28125 L 4.03125 -3.09375 L 4.03125 0 L 2.9375 0 L 2.9375 -3.09375 L 0.078125 -8.28125 L 1.328125 -8.28125 Z M 3.484375 -4.125 "/></g></g></g><g clip-path="url(#id1)"><path fill="rgb(21.958923%, 71.369934%, 100%)" d="M 169.371094 116.796875 L 165.613281 114.746094 C 165.175781 114.507812 164.738281 114.507812 164.300781 114.746094 L 160.542969 116.796875 C 160.324219 116.917969 160.148438 117.085938 160.019531 117.300781 C 159.894531 117.515625 159.828125 117.75 159.828125 118 L 159.828125 122.105469 C 159.828125 122.355469 159.894531 122.589844 160.019531 122.804688 C 160.148438 123.019531 160.324219 123.1875 160.542969 123.308594 L 164.300781 125.363281 C 164.738281 125.601562 165.175781 125.601562 165.613281 125.363281 L 169.371094 123.308594 C 169.59375 123.1875 169.765625 123.019531 169.894531 122.804688 C 170.019531 122.589844 170.085938 122.355469 170.085938 122.105469 L 170.085938 118 C 170.085938 117.75 170.019531 117.515625 169.894531 117.300781 C 169.765625 117.085938 169.59375 116.917969 169.371094 116.796875 Z M 169.371094 116.796875 " fill-opacity="1" fill-rule="nonzero"/></g><g clip-path="url(#id2)"><path fill="rgb(21.958923%, 71.369934%, 100%)" d="M 152.679688 122.957031 L 148.917969 125.011719 C 148.699219 125.132812 148.527344 125.300781 148.398438 125.515625 C 148.269531 125.730469 148.207031 125.960938 148.207031 126.214844 L 148.207031 130.320312 C 148.207031 130.570312 148.269531 130.804688 148.398438 131.019531 C 148.527344 131.234375 148.699219 131.402344 148.917969 131.523438 L 152.679688 133.574219 C 153.117188 133.8125 153.554688 133.8125 153.988281 133.574219 L 157.75 131.523438 C 157.96875 131.402344 158.144531 131.234375 158.269531 131.019531 C 158.398438 130.804688 158.460938 130.570312 158.460938 130.320312 L 158.460938 126.214844 C 158.460938 125.960938 158.398438 125.730469 158.269531 125.515625 C 158.144531 125.300781 157.96875 125.132812 157.75 125.011719 L 153.988281 122.957031 C 153.554688 122.71875 153.117188 122.71875 152.679688 122.957031 Z M 152.679688 122.957031 " fill-opacity="1" fill-rule="nonzero"/></g><g clip-path="url(#id3)"><path fill="rgb(21.958923%, 71.369934%, 100%)" d="M 210.734375 114.746094 C 210.300781 114.507812 209.863281 114.507812 209.425781 114.746094 L 205.664062 116.796875 C 205.445312 116.917969 205.273438 117.085938 205.144531 117.300781 C 205.015625 117.515625 204.953125 117.75 204.953125 118 L 204.953125 122.105469 C 204.953125 122.355469 205.015625 122.589844 205.144531 122.804688 C 205.273438 123.019531 205.445312 123.1875 205.664062 123.308594 L 209.425781 125.363281 C 209.863281 125.601562 210.300781 125.601562 210.734375 125.363281 L 214.496094 123.308594 C 214.714844 123.1875 214.890625 123.019531 215.015625 122.804688 C 215.144531 122.589844 215.210938 122.355469 215.210938 122.105469 L 215.210938 118 C 215.210938 117.75 215.144531 117.515625 215.019531 117.300781 C 214.890625 117.085938 214.714844 116.917969 214.496094 116.796875 Z M 210.734375 114.746094 " fill-opacity="1" fill-rule="nonzero"/></g><g clip-path="url(#id4)"><path fill="rgb(21.958923%, 71.369934%, 100%)" d="M 226.121094 125.011719 L 222.359375 122.957031 C 221.921875 122.71875 221.484375 122.71875 221.050781 122.957031 L 217.289062 125.011719 C 217.070312 125.132812 216.894531 125.300781 216.769531 125.515625 C 216.640625 125.730469 216.578125 125.960938 216.578125 126.214844 L 216.578125 130.320312 C 216.578125 130.570312 216.640625 130.804688 216.769531 131.019531 C 216.894531 131.234375 217.070312 131.402344 217.289062 131.523438 L 221.050781 133.574219 C 221.484375 133.8125 221.921875 133.8125 222.359375 133.574219 L 226.121094 131.523438 C 226.339844 131.402344 226.511719 131.234375 226.640625 131.019531 C 226.769531 130.804688 226.832031 130.570312 226.832031 130.320312 L 226.832031 126.214844 C 226.832031 125.960938 226.769531 125.730469 226.640625 125.515625 C 226.511719 125.300781 226.339844 125.132812 226.121094 125.011719 Z M 226.121094 125.011719 " fill-opacity="1" fill-rule="nonzero"/></g><path fill="rgb(21.958923%, 71.369934%, 100%)" d="M 182.390625 120.738281 L 182.390625 124.84375 C 182.390625 125.09375 182.457031 125.328125 182.582031 125.542969 C 182.710938 125.757812 182.882812 125.925781 183.105469 126.046875 L 186.863281 128.097656 C 187.300781 128.335938 187.738281 128.335938 188.175781 128.097656 L 191.933594 126.046875 C 192.152344 125.925781 192.328125 125.757812 192.457031 125.542969 C 192.582031 125.328125 192.648438 125.09375 192.648438 124.84375 L 192.648438 120.738281 C 192.648438 120.488281 192.582031 120.253906 192.457031 120.039062 C 192.328125 119.824219 192.152344 119.65625 191.933594 119.535156 L 188.175781 117.480469 C 187.738281 117.242188 187.300781 117.242188 186.863281 117.480469 L 183.105469 119.535156 C 182.882812 119.65625 182.710938 119.824219 182.582031 120.039062 C 182.457031 120.253906 182.390625 120.488281 182.390625 120.738281 Z M 182.390625 120.738281 " fill-opacity="1" fill-rule="nonzero"/><g clip-path="url(#id5)"><path fill="rgb(21.958923%, 71.369934%, 100%)" d="M 169.371094 193.460938 L 165.613281 191.40625 C 165.175781 191.167969 164.738281 191.167969 164.300781 191.40625 L 160.542969 193.460938 C 160.324219 193.578125 160.148438 193.746094 160.019531 193.960938 C 159.894531 194.175781 159.828125 194.410156 159.828125 194.660156 L 159.828125 198.769531 C 159.828125 199.019531 159.894531 199.25 160.019531 199.464844 C 160.148438 199.683594 160.324219 199.851562 160.542969 199.96875 L 164.300781 202.023438 C 164.738281 202.261719 165.175781 202.261719 165.613281 202.023438 L 169.371094 199.96875 C 169.59375 199.851562 169.765625 199.683594 169.894531 199.464844 C 170.019531 199.25 170.085938 199.019531 170.085938 198.769531 L 170.085938 194.660156 C 170.085938 194.410156 170.019531 194.175781 169.894531 193.960938 C 169.765625 193.746094 169.59375 193.578125 169.371094 193.460938 Z M 169.371094 193.460938 " fill-opacity="1" fill-rule="nonzero"/></g><g clip-path="url(#id6)"><path fill="rgb(21.958923%, 71.369934%, 100%)" d="M 157.75 185.246094 L 153.988281 183.191406 C 153.554688 182.953125 153.117188 182.953125 152.679688 183.191406 L 148.917969 185.246094 C 148.699219 185.367188 148.527344 185.53125 148.398438 185.75 C 148.269531 185.964844 148.207031 186.195312 148.207031 186.445312 L 148.207031 190.554688 C 148.207031 190.804688 148.269531 191.039062 148.398438 191.253906 C 148.527344 191.46875 148.699219 191.636719 148.917969 191.757812 L 152.679688 193.808594 C 153.117188 194.046875 153.554688 194.046875 153.988281 193.808594 L 157.75 191.757812 C 157.96875 191.636719 158.144531 191.46875 158.269531 191.253906 C 158.398438 191.039062 158.460938 190.804688 158.460938 190.554688 L 158.460938 186.445312 C 158.460938 186.195312 158.398438 185.964844 158.269531 185.75 C 158.144531 185.53125 157.96875 185.367188 157.75 185.246094 Z M 157.75 185.246094 " fill-opacity="1" fill-rule="nonzero"/></g><g clip-path="url(#id7)"><path fill="rgb(21.958923%, 71.369934%, 100%)" d="M 214.496094 193.460938 L 210.734375 191.40625 C 210.300781 191.167969 209.863281 191.167969 209.425781 191.40625 L 205.664062 193.460938 C 205.445312 193.578125 205.273438 193.746094 205.144531 193.960938 C 205.015625 194.175781 204.953125 194.410156 204.953125 194.660156 L 204.953125 198.769531 C 204.953125 199.019531 205.015625 199.25 205.144531 199.464844 C 205.273438 199.683594 205.445312 199.851562 205.664062 199.96875 L 209.425781 202.023438 C 209.863281 202.261719 210.300781 202.261719 210.734375 202.023438 L 214.496094 199.96875 C 214.714844 199.851562 214.890625 199.683594 215.015625 199.464844 C 215.144531 199.25 215.210938 199.019531 215.210938 198.769531 L 215.210938 194.660156 C 215.210938 194.410156 215.144531 194.175781 215.015625 193.960938 C 214.890625 193.746094 214.714844 193.578125 214.496094 193.460938 Z M 214.496094 193.460938 " fill-opacity="1" fill-rule="nonzero"/></g><g clip-path="url(#id8)"><path fill="rgb(21.958923%, 71.369934%, 100%)" d="M 226.121094 185.246094 L 222.359375 183.191406 C 221.921875 182.953125 221.484375 182.953125 221.050781 183.191406 L 217.289062 185.246094 C 217.070312 185.367188 216.894531 185.53125 216.769531 185.75 C 216.640625 185.964844 216.578125 186.195312 216.578125 186.445312 L 216.578125 190.554688 C 216.578125 190.804688 216.640625 191.039062 216.769531 191.253906 C 216.894531 191.46875 217.070312 191.636719 217.289062 191.757812 L 221.050781 193.808594 C 221.484375 194.046875 221.921875 194.046875 222.359375 193.808594 L 226.121094 191.757812 C 226.339844 191.636719 226.511719 191.46875 226.640625 191.253906 C 226.769531 191.039062 226.832031 190.804688 226.832031 190.554688 L 226.832031 186.445312 C 226.832031 186.195312 226.769531 185.964844 226.640625 185.75 C 226.511719 185.53125 226.339844 185.367188 226.121094 185.246094 Z M 226.121094 185.246094 " fill-opacity="1" fill-rule="nonzero"/></g><path fill="rgb(21.958923%, 71.369934%, 100%)" d="M 191.933594 190.722656 L 188.175781 188.667969 C 187.738281 188.429688 187.300781 188.429688 186.863281 188.667969 L 183.105469 190.722656 C 182.882812 190.839844 182.710938 191.007812 182.582031 191.222656 C 182.457031 191.441406 182.390625 191.671875 182.390625 191.921875 L 182.390625 196.03125 C 182.390625 196.28125 182.457031 196.511719 182.582031 196.730469 C 182.710938 196.945312 182.882812 197.113281 183.105469 197.230469 L 186.863281 199.285156 C 187.300781 199.523438 187.738281 199.523438 188.175781 199.285156 L 191.933594 197.230469 C 192.152344 197.113281 192.328125 196.945312 192.457031 196.730469 C 192.582031 196.511719 192.648438 196.28125 192.648438 196.03125 L 192.648438 191.921875 C 192.648438 191.671875 192.582031 191.441406 192.457031 191.222656 C 192.328125 191.007812 192.152344 190.839844 191.933594 190.722656 Z M 191.933594 190.722656 " fill-opacity="1" fill-rule="nonzero"/><path fill="rgb(21.958923%, 71.369934%, 100%)" d="M 186.152344 130.761719 L 186.152344 138.089844 C 187.0625 137.765625 187.976562 137.765625 188.886719 138.089844 L 188.886719 130.761719 C 187.976562 131.09375 187.0625 131.09375 186.152344 130.761719 Z M 186.152344 130.761719 " fill-opacity="1" fill-rule="nonzero"/><path fill="rgb(21.958923%, 71.369934%, 100%)" d="M 208.714844 151.539062 C 209.078125 151.539062 209.425781 151.46875 209.761719 151.328125 C 210.09375 151.191406 210.390625 150.992188 210.648438 150.734375 C 210.902344 150.480469 211.101562 150.183594 211.238281 149.847656 C 211.378906 149.511719 211.449219 149.164062 211.449219 148.800781 L 211.449219 128.023438 C 210.539062 128.359375 209.625 128.359375 208.714844 128.023438 L 208.714844 148.800781 L 206.417969 148.800781 C 206.578125 149.242188 206.660156 149.699219 206.664062 150.171875 L 206.664062 151.539062 Z M 208.714844 151.539062 " fill-opacity="1" fill-rule="nonzero"/><path fill="rgb(21.958923%, 71.369934%, 100%)" d="M 203.214844 148.96875 L 188.175781 140.753906 C 187.738281 140.515625 187.300781 140.515625 186.863281 140.753906 L 171.824219 148.96875 C 171.601562 149.089844 171.429688 149.253906 171.300781 149.472656 C 171.175781 149.6875 171.109375 149.917969 171.109375 150.171875 L 171.109375 166.597656 C 171.109375 166.847656 171.175781 167.082031 171.300781 167.296875 C 171.429688 167.511719 171.601562 167.679688 171.824219 167.800781 L 186.863281 176.011719 C 187.300781 176.25 187.738281 176.25 188.175781 176.011719 L 203.214844 167.800781 C 203.433594 167.679688 203.609375 167.511719 203.738281 167.296875 C 203.863281 167.082031 203.929688 166.847656 203.929688 166.597656 L 203.929688 150.171875 C 203.929688 149.917969 203.863281 149.6875 203.738281 149.472656 C 203.609375 149.253906 203.433594 149.089844 203.214844 148.96875 Z M 185.449219 150.683594 L 180 153.714844 L 180 159.066406 C 180 159.25 179.964844 159.425781 179.894531 159.59375 C 179.824219 159.757812 179.726562 159.90625 179.597656 160.035156 C 179.46875 160.164062 179.320312 160.261719 179.15625 160.332031 C 178.988281 160.402344 178.8125 160.4375 178.632812 160.4375 C 178.449219 160.4375 178.277344 160.402344 178.109375 160.332031 C 177.941406 160.261719 177.792969 160.164062 177.664062 160.035156 C 177.535156 159.90625 177.4375 159.757812 177.367188 159.59375 C 177.296875 159.425781 177.265625 159.25 177.265625 159.066406 L 177.265625 152.90625 C 177.265625 152.660156 177.328125 152.429688 177.453125 152.214844 C 177.578125 152 177.75 151.832031 177.96875 151.710938 L 184.121094 148.289062 C 184.277344 148.199219 184.449219 148.144531 184.628906 148.125 C 184.808594 148.105469 184.984375 148.121094 185.160156 148.167969 C 185.335938 148.21875 185.492188 148.300781 185.632812 148.414062 C 185.777344 148.527344 185.890625 148.660156 185.980469 148.820312 C 186.066406 148.980469 186.121094 149.148438 186.144531 149.328125 C 186.164062 149.507812 186.148438 149.6875 186.097656 149.863281 C 186.050781 150.035156 185.96875 150.195312 185.855469 150.335938 C 185.742188 150.480469 185.605469 150.59375 185.449219 150.683594 Z M 185.449219 150.683594 " fill-opacity="1" fill-rule="nonzero"/><path fill="rgb(21.958923%, 71.369934%, 100%)" d="M 164.957031 128.265625 C 164.488281 128.265625 164.03125 128.183594 163.589844 128.023438 L 163.589844 148.800781 C 163.589844 149.164062 163.660156 149.511719 163.800781 149.847656 C 163.9375 150.183594 164.136719 150.480469 164.390625 150.734375 C 164.648438 150.992188 164.945312 151.191406 165.277344 151.328125 C 165.613281 151.46875 165.960938 151.539062 166.324219 151.539062 L 168.375 151.539062 L 168.375 150.171875 C 168.378906 149.699219 168.460938 149.242188 168.621094 148.800781 L 166.324219 148.800781 L 166.324219 128.023438 C 165.882812 128.183594 165.425781 128.265625 164.957031 128.265625 Z M 164.957031 128.265625 " fill-opacity="1" fill-rule="nonzero"/><path fill="rgb(21.958923%, 71.369934%, 100%)" d="M 154.703125 152.90625 L 154.703125 136.238281 C 153.789062 136.570312 152.878906 136.570312 151.96875 136.238281 L 151.96875 152.90625 C 151.96875 153.175781 151.992188 153.445312 152.046875 153.707031 C 152.097656 153.972656 152.175781 154.230469 152.28125 154.480469 C 152.382812 154.726562 152.511719 154.964844 152.660156 155.1875 C 152.808594 155.414062 152.980469 155.621094 153.171875 155.808594 C 153.359375 156 153.566406 156.171875 153.792969 156.320312 C 154.015625 156.472656 154.25 156.597656 154.5 156.699219 C 154.75 156.804688 155.003906 156.882812 155.269531 156.933594 C 155.535156 156.988281 155.800781 157.015625 156.070312 157.015625 L 168.375 157.015625 L 168.375 154.277344 L 156.070312 154.277344 C 155.886719 154.277344 155.714844 154.242188 155.546875 154.171875 C 155.378906 154.101562 155.230469 154.003906 155.101562 153.875 C 154.976562 153.746094 154.875 153.597656 154.804688 153.429688 C 154.738281 153.265625 154.703125 153.089844 154.703125 152.90625 Z M 154.703125 152.90625 " fill-opacity="1" fill-rule="nonzero"/><path fill="rgb(21.958923%, 71.369934%, 100%)" d="M 223.070312 136.238281 C 222.160156 136.570312 221.25 136.570312 220.335938 136.238281 L 220.335938 152.90625 C 220.335938 153.089844 220.300781 153.265625 220.230469 153.429688 C 220.164062 153.597656 220.0625 153.746094 219.9375 153.875 C 219.808594 154.003906 219.660156 154.101562 219.492188 154.171875 C 219.324219 154.242188 219.152344 154.277344 218.96875 154.277344 L 206.664062 154.277344 L 206.664062 157.015625 L 218.96875 157.015625 C 219.238281 157.015625 219.503906 156.988281 219.769531 156.933594 C 220.035156 156.882812 220.289062 156.804688 220.539062 156.699219 C 220.789062 156.597656 221.023438 156.472656 221.246094 156.320312 C 221.472656 156.171875 221.679688 156 221.867188 155.808594 C 222.058594 155.621094 222.230469 155.414062 222.378906 155.1875 C 222.527344 154.964844 222.65625 154.726562 222.757812 154.480469 C 222.859375 154.230469 222.9375 153.972656 222.992188 153.707031 C 223.042969 153.445312 223.070312 153.175781 223.070312 152.90625 Z M 223.070312 136.238281 " fill-opacity="1" fill-rule="nonzero"/><path fill="rgb(21.958923%, 71.369934%, 100%)" d="M 221.703125 180.285156 C 222.171875 180.289062 222.628906 180.371094 223.070312 180.527344 L 223.070312 163.859375 C 223.070312 163.589844 223.042969 163.324219 222.992188 163.058594 C 222.9375 162.792969 222.859375 162.539062 222.757812 162.289062 C 222.65625 162.039062 222.527344 161.804688 222.378906 161.578125 C 222.230469 161.355469 222.058594 161.148438 221.867188 160.957031 C 221.679688 160.765625 221.472656 160.597656 221.246094 160.445312 C 221.023438 160.296875 220.789062 160.167969 220.539062 160.066406 C 220.289062 159.964844 220.035156 159.886719 219.769531 159.832031 C 219.503906 159.78125 219.238281 159.753906 218.96875 159.753906 L 206.664062 159.753906 L 206.664062 162.492188 L 218.96875 162.492188 C 219.152344 162.492188 219.324219 162.527344 219.492188 162.59375 C 219.660156 162.664062 219.808594 162.765625 219.9375 162.890625 C 220.0625 163.019531 220.164062 163.167969 220.230469 163.335938 C 220.300781 163.503906 220.335938 163.679688 220.335938 163.859375 L 220.335938 180.527344 C 220.777344 180.371094 221.234375 180.289062 221.703125 180.285156 Z M 221.703125 180.285156 " fill-opacity="1" fill-rule="nonzero"/><path fill="rgb(21.958923%, 71.369934%, 100%)" d="M 168.375 159.753906 L 156.070312 159.753906 C 155.800781 159.753906 155.535156 159.78125 155.269531 159.832031 C 155.003906 159.886719 154.75 159.964844 154.5 160.066406 C 154.25 160.167969 154.015625 160.296875 153.792969 160.445312 C 153.566406 160.597656 153.359375 160.765625 153.171875 160.957031 C 152.980469 161.148438 152.808594 161.355469 152.660156 161.578125 C 152.511719 161.804688 152.382812 162.039062 152.28125 162.289062 C 152.175781 162.539062 152.097656 162.792969 152.046875 163.058594 C 151.992188 163.324219 151.96875 163.589844 151.96875 163.859375 L 151.96875 180.527344 C 152.878906 180.195312 153.789062 180.195312 154.703125 180.527344 L 154.703125 163.859375 C 154.703125 163.679688 154.738281 163.503906 154.804688 163.335938 C 154.875 163.167969 154.976562 163.019531 155.101562 162.890625 C 155.230469 162.765625 155.378906 162.664062 155.546875 162.59375 C 155.714844 162.527344 155.886719 162.492188 156.070312 162.492188 L 168.375 162.492188 Z M 168.375 159.753906 " fill-opacity="1" fill-rule="nonzero"/><path fill="rgb(21.958923%, 71.369934%, 100%)" d="M 210.082031 188.5 C 210.550781 188.503906 211.007812 188.582031 211.449219 188.742188 L 211.449219 167.964844 C 211.449219 167.601562 211.378906 167.253906 211.238281 166.917969 C 211.101562 166.582031 210.902344 166.289062 210.648438 166.03125 C 210.390625 165.773438 210.09375 165.578125 209.761719 165.4375 C 209.425781 165.296875 209.078125 165.230469 208.714844 165.226562 L 206.664062 165.226562 L 206.664062 166.597656 C 206.660156 167.066406 206.578125 167.523438 206.417969 167.964844 L 208.714844 167.964844 L 208.714844 188.742188 C 209.15625 188.582031 209.613281 188.503906 210.082031 188.5 Z M 210.082031 188.5 " fill-opacity="1" fill-rule="nonzero"/><path fill="rgb(21.958923%, 71.369934%, 100%)" d="M 188.886719 186.003906 L 188.886719 178.675781 C 187.976562 179.007812 187.0625 179.007812 186.152344 178.675781 L 186.152344 186.003906 C 187.0625 185.671875 187.976562 185.671875 188.886719 186.003906 Z M 188.886719 186.003906 " fill-opacity="1" fill-rule="nonzero"/><path fill="rgb(21.958923%, 71.369934%, 100%)" d="M 166.324219 188.742188 L 166.324219 167.964844 L 168.621094 167.964844 C 168.460938 167.523438 168.378906 167.066406 168.375 166.597656 L 168.375 165.226562 L 166.324219 165.226562 C 165.960938 165.230469 165.613281 165.296875 165.277344 165.4375 C 164.945312 165.578125 164.648438 165.773438 164.390625 166.03125 C 164.136719 166.289062 163.9375 166.582031 163.800781 166.917969 C 163.660156 167.253906 163.589844 167.601562 163.589844 167.964844 L 163.589844 188.742188 C 164.5 188.410156 165.414062 188.410156 166.324219 188.742188 Z M 166.324219 188.742188 " fill-opacity="1" fill-rule="nonzero"/></svg>