<?xml version="1.0" encoding="UTF-8"?>
<svg xmlns="http://www.w3.org/2000/svg" xmlns:xlink="http://www.w3.org/1999/xlink" width="48px" height="48px" viewBox="0 0 48 48" version="1.1">
<defs>
<clipPath id="clip1">
  <path d="M 20.351562 14.65625 L 21.886719 14.65625 L 21.886719 16.128906 L 20.351562 16.128906 Z M 20.351562 14.65625 "/>
</clipPath>
<clipPath id="clip2">
  <path d="M 18.964844 15.617188 L 20.351562 15.617188 L 20.351562 17.152344 L 18.964844 17.152344 Z M 18.964844 15.617188 "/>
</clipPath>
<clipPath id="clip3">
  <path d="M 26.113281 14.65625 L 27.648438 14.65625 L 27.648438 16.128906 L 26.113281 16.128906 Z M 26.113281 14.65625 "/>
</clipPath>
<clipPath id="clip4">
  <path d="M 27.648438 15.617188 L 29.042969 15.617188 L 29.042969 17.152344 L 27.648438 17.152344 Z M 27.648438 15.617188 "/>
</clipPath>
<clipPath id="clip5">
  <path d="M 20.351562 24.449219 L 21.886719 24.449219 L 21.886719 25.890625 L 20.351562 25.890625 Z M 20.351562 24.449219 "/>
</clipPath>
<clipPath id="clip6">
  <path d="M 18.964844 23.425781 L 20.351562 23.425781 L 20.351562 24.832031 L 18.964844 24.832031 Z M 18.964844 23.425781 "/>
</clipPath>
<clipPath id="clip7">
  <path d="M 26.113281 24.449219 L 27.648438 24.449219 L 27.648438 25.890625 L 26.113281 25.890625 Z M 26.113281 24.449219 "/>
</clipPath>
<clipPath id="clip8">
  <path d="M 27.648438 23.425781 L 29.042969 23.425781 L 29.042969 24.832031 L 27.648438 24.832031 Z M 27.648438 23.425781 "/>
</clipPath>
</defs>
<g id="surface1">
<rect x="0" y="0" width="48" height="48" style="fill:rgb(1.176471%,8.235294%,27.843137%);fill-opacity:1;stroke:none;"/>
<path style=" stroke:none;fill-rule:nonzero;fill:rgb(100%,100%,100%);fill-opacity:1;" d="M 16.511719 30.566406 L 16.078125 30.566406 L 14.691406 28.699219 L 14.691406 30.566406 L 14.253906 30.566406 L 14.253906 27.960938 L 14.683594 27.960938 L 16.078125 29.832031 L 16.078125 27.960938 L 16.511719 27.960938 Z M 16.511719 30.566406 "/>
<path style=" stroke:none;fill-rule:nonzero;fill:rgb(100%,100%,100%);fill-opacity:1;" d="M 17.625 29.535156 L 18.394531 29.535156 L 18.394531 28.917969 L 18.804688 28.917969 L 18.804688 29.535156 L 19.183594 29.535156 L 19.183594 29.925781 L 18.804688 29.925781 L 18.804688 30.566406 L 18.394531 30.566406 L 18.394531 29.925781 L 17.15625 29.925781 L 17.15625 29.597656 L 18.042969 27.960938 L 18.46875 27.960938 Z M 17.625 29.535156 "/>
<path style=" stroke:none;fill-rule:nonzero;fill:rgb(100%,100%,100%);fill-opacity:1;" d="M 22.550781 30.566406 L 22.144531 30.566406 L 22.140625 28.621094 L 21.320312 30.292969 L 21.035156 30.292969 L 20.210938 28.621094 L 20.210938 30.566406 L 19.800781 30.566406 L 19.800781 27.960938 L 20.320312 27.960938 L 21.179688 29.691406 L 22.035156 27.960938 L 22.550781 27.960938 Z M 22.550781 30.566406 "/>
<path style=" stroke:none;fill-rule:nonzero;fill:rgb(100%,100%,100%);fill-opacity:1;" d="M 23.664062 29.535156 L 24.433594 29.535156 L 24.433594 28.917969 L 24.84375 28.917969 L 24.84375 29.535156 L 25.222656 29.535156 L 25.222656 29.925781 L 24.84375 29.925781 L 24.84375 30.566406 L 24.433594 30.566406 L 24.433594 29.925781 L 23.195312 29.925781 L 23.195312 29.597656 L 24.082031 27.960938 L 24.507812 27.960938 Z M 23.664062 29.535156 "/>
<path style=" stroke:none;fill-rule:nonzero;fill:rgb(100%,100%,100%);fill-opacity:1;" d="M 27.488281 30.566406 L 27.011719 29.777344 C 26.988281 29.78125 26.949219 29.78125 26.894531 29.78125 L 26.277344 29.78125 L 26.277344 30.566406 L 25.839844 30.566406 L 25.839844 27.960938 L 26.894531 27.960938 C 27.226562 27.960938 27.484375 28.039062 27.667969 28.195312 C 27.851562 28.351562 27.941406 28.570312 27.941406 28.851562 C 27.941406 29.058594 27.894531 29.238281 27.804688 29.378906 C 27.710938 29.523438 27.574219 29.628906 27.402344 29.695312 L 27.988281 30.566406 Z M 26.277344 29.386719 L 26.894531 29.386719 C 27.316406 29.386719 27.523438 29.210938 27.523438 28.863281 C 27.523438 28.527344 27.316406 28.355469 26.894531 28.355469 L 26.277344 28.355469 Z M 26.277344 29.386719 "/>
<path style=" stroke:none;fill-rule:nonzero;fill:rgb(100%,100%,100%);fill-opacity:1;" d="M 29.867188 27.953125 C 30.046875 27.953125 30.226562 27.988281 30.402344 28.058594 C 30.578125 28.128906 30.726562 28.226562 30.855469 28.351562 L 30.597656 28.671875 C 30.503906 28.570312 30.390625 28.492188 30.261719 28.433594 C 30.132812 28.371094 30.003906 28.34375 29.875 28.34375 C 29.613281 28.34375 29.394531 28.433594 29.214844 28.609375 C 29.035156 28.785156 28.945312 29.003906 28.945312 29.257812 C 28.945312 29.515625 29.035156 29.730469 29.214844 29.910156 C 29.394531 30.085938 29.613281 30.175781 29.875 30.175781 C 30.144531 30.175781 30.382812 30.074219 30.597656 29.867188 L 30.859375 30.15625 C 30.722656 30.289062 30.566406 30.390625 30.390625 30.46875 C 30.210938 30.542969 30.03125 30.582031 29.851562 30.582031 C 29.46875 30.582031 29.148438 30.457031 28.886719 30.203125 C 28.628906 29.949219 28.496094 29.632812 28.496094 29.261719 C 28.496094 28.890625 28.628906 28.582031 28.894531 28.332031 C 29.15625 28.078125 29.480469 27.953125 29.867188 27.953125 Z M 29.867188 27.953125 "/>
<path style=" stroke:none;fill-rule:nonzero;fill:rgb(100%,100%,100%);fill-opacity:1;" d="M 33.746094 30.566406 L 33.308594 30.566406 L 33.308594 29.488281 L 31.929688 29.488281 L 31.929688 30.566406 L 31.492188 30.566406 L 31.492188 27.960938 L 31.929688 27.960938 L 31.929688 29.09375 L 33.308594 29.09375 L 33.308594 27.960938 L 33.746094 27.960938 Z M 33.746094 30.566406 "/>
<path style=" stroke:none;fill-rule:nonzero;fill:rgb(21.960784%,71.372549%,100%);fill-opacity:1;" d="M 19.652344 32.375 C 19.53125 32.339844 19.445312 32.296875 19.390625 32.246094 C 19.335938 32.195312 19.308594 32.132812 19.308594 32.058594 C 19.308594 31.976562 19.339844 31.910156 19.40625 31.851562 C 19.472656 31.800781 19.5625 31.769531 19.667969 31.769531 C 19.738281 31.769531 19.804688 31.785156 19.863281 31.8125 C 19.917969 31.839844 19.960938 31.878906 19.992188 31.929688 C 20.027344 31.980469 20.042969 32.03125 20.042969 32.089844 L 19.902344 32.089844 C 19.902344 32.027344 19.882812 31.976562 19.839844 31.941406 C 19.800781 31.90625 19.742188 31.886719 19.667969 31.886719 C 19.597656 31.886719 19.542969 31.902344 19.507812 31.933594 C 19.46875 31.964844 19.449219 32.003906 19.449219 32.058594 C 19.449219 32.101562 19.464844 32.140625 19.5 32.167969 C 19.539062 32.199219 19.601562 32.226562 19.691406 32.25 C 19.777344 32.277344 19.847656 32.300781 19.894531 32.332031 C 19.945312 32.359375 19.984375 32.394531 20.007812 32.433594 C 20.03125 32.476562 20.042969 32.523438 20.042969 32.574219 C 20.042969 32.664062 20.011719 32.730469 19.945312 32.785156 C 19.875 32.835938 19.789062 32.859375 19.675781 32.859375 C 19.601562 32.859375 19.535156 32.84375 19.46875 32.816406 C 19.40625 32.789062 19.359375 32.75 19.324219 32.703125 C 19.289062 32.65625 19.273438 32.601562 19.273438 32.539062 L 19.414062 32.539062 C 19.414062 32.601562 19.4375 32.65625 19.484375 32.691406 C 19.53125 32.726562 19.597656 32.746094 19.675781 32.746094 C 19.75 32.746094 19.804688 32.730469 19.84375 32.703125 C 19.882812 32.671875 19.902344 32.628906 19.902344 32.578125 C 19.902344 32.527344 19.886719 32.484375 19.847656 32.457031 C 19.8125 32.429688 19.746094 32.402344 19.652344 32.375 Z M 19.652344 32.375 "/>
<path style=" stroke:none;fill-rule:nonzero;fill:rgb(21.960784%,71.372549%,100%);fill-opacity:1;" d="M 21.222656 32.355469 L 20.761719 32.355469 L 20.761719 32.730469 L 21.296875 32.730469 L 21.296875 32.84375 L 20.621094 32.84375 L 20.621094 31.785156 L 21.285156 31.785156 L 21.285156 31.902344 L 20.761719 31.902344 L 20.761719 32.242188 L 21.222656 32.242188 Z M 21.222656 32.355469 "/>
<path style=" stroke:none;fill-rule:nonzero;fill:rgb(21.960784%,71.372549%,100%);fill-opacity:1;" d="M 22.648438 32.507812 C 22.632812 32.621094 22.59375 32.707031 22.523438 32.769531 C 22.453125 32.828125 22.359375 32.859375 22.246094 32.859375 C 22.121094 32.859375 22.019531 32.816406 21.941406 32.726562 C 21.867188 32.636719 21.832031 32.515625 21.832031 32.367188 L 21.832031 32.261719 C 21.832031 32.164062 21.847656 32.078125 21.882812 32.003906 C 21.917969 31.929688 21.96875 31.871094 22.03125 31.832031 C 22.097656 31.792969 22.171875 31.769531 22.257812 31.769531 C 22.371094 31.769531 22.460938 31.804688 22.527344 31.867188 C 22.597656 31.929688 22.636719 32.015625 22.648438 32.128906 L 22.507812 32.128906 C 22.496094 32.042969 22.46875 31.980469 22.425781 31.945312 C 22.386719 31.90625 22.328125 31.886719 22.257812 31.886719 C 22.167969 31.886719 22.097656 31.921875 22.046875 31.984375 C 21.996094 32.050781 21.972656 32.144531 21.972656 32.265625 L 21.972656 32.371094 C 21.972656 32.484375 21.996094 32.574219 22.042969 32.644531 C 22.09375 32.710938 22.160156 32.746094 22.246094 32.746094 C 22.320312 32.746094 22.382812 32.726562 22.421875 32.695312 C 22.464844 32.65625 22.492188 32.597656 22.507812 32.507812 Z M 22.648438 32.507812 "/>
<path style=" stroke:none;fill-rule:nonzero;fill:rgb(21.960784%,71.372549%,100%);fill-opacity:1;" d="M 23.980469 31.785156 L 23.980469 32.503906 C 23.980469 32.605469 23.949219 32.6875 23.886719 32.75 C 23.824219 32.816406 23.742188 32.851562 23.632812 32.859375 L 23.597656 32.859375 C 23.480469 32.859375 23.390625 32.828125 23.320312 32.765625 C 23.253906 32.703125 23.21875 32.617188 23.214844 32.507812 L 23.214844 31.785156 L 23.355469 31.785156 L 23.355469 32.503906 C 23.355469 32.582031 23.375 32.640625 23.417969 32.683594 C 23.457031 32.726562 23.519531 32.746094 23.597656 32.746094 C 23.675781 32.746094 23.738281 32.726562 23.777344 32.683594 C 23.820312 32.640625 23.84375 32.582031 23.84375 32.503906 L 23.84375 31.785156 Z M 23.980469 31.785156 "/>
<path style=" stroke:none;fill-rule:nonzero;fill:rgb(21.960784%,71.372549%,100%);fill-opacity:1;" d="M 24.992188 32.417969 L 24.742188 32.417969 L 24.742188 32.84375 L 24.601562 32.84375 L 24.601562 31.785156 L 24.953125 31.785156 C 25.070312 31.785156 25.164062 31.8125 25.226562 31.867188 C 25.292969 31.921875 25.324219 32 25.324219 32.105469 C 25.324219 32.171875 25.304688 32.226562 25.269531 32.277344 C 25.234375 32.328125 25.183594 32.363281 25.121094 32.386719 L 25.371094 32.835938 L 25.371094 32.84375 L 25.222656 32.84375 Z M 24.742188 32.304688 L 24.957031 32.304688 C 25.027344 32.304688 25.082031 32.285156 25.121094 32.25 C 25.164062 32.214844 25.183594 32.164062 25.183594 32.105469 C 25.183594 32.039062 25.164062 31.992188 25.125 31.957031 C 25.085938 31.917969 25.03125 31.902344 24.957031 31.902344 L 24.742188 31.902344 Z M 24.742188 32.304688 "/>
<path style=" stroke:none;fill-rule:nonzero;fill:rgb(21.960784%,71.372549%,100%);fill-opacity:1;" d="M 26.066406 32.84375 L 25.929688 32.84375 L 25.929688 31.785156 L 26.066406 31.785156 Z M 26.066406 32.84375 "/>
<path style=" stroke:none;fill-rule:nonzero;fill:rgb(21.960784%,71.372549%,100%);fill-opacity:1;" d="M 27.453125 31.902344 L 27.113281 31.902344 L 27.113281 32.84375 L 26.976562 32.84375 L 26.976562 31.902344 L 26.636719 31.902344 L 26.636719 31.785156 L 27.453125 31.785156 Z M 27.453125 31.902344 "/>
<path style=" stroke:none;fill-rule:nonzero;fill:rgb(21.960784%,71.372549%,100%);fill-opacity:1;" d="M 28.335938 32.316406 L 28.609375 31.785156 L 28.769531 31.785156 L 28.40625 32.449219 L 28.40625 32.84375 L 28.265625 32.84375 L 28.265625 32.449219 L 27.898438 31.785156 L 28.058594 31.785156 Z M 28.335938 32.316406 "/>
<g clip-path="url(#clip1)" clip-rule="nonzero">
<path style=" stroke:none;fill-rule:nonzero;fill:rgb(21.960784%,71.372549%,100%);fill-opacity:1;" d="M 21.679688 14.949219 L 21.199219 14.6875 C 21.140625 14.65625 21.085938 14.65625 21.03125 14.6875 L 20.550781 14.949219 C 20.523438 14.964844 20.5 14.988281 20.484375 15.015625 C 20.464844 15.042969 20.457031 15.070312 20.457031 15.105469 L 20.457031 15.628906 C 20.457031 15.660156 20.464844 15.691406 20.484375 15.71875 C 20.5 15.746094 20.523438 15.769531 20.550781 15.785156 L 21.03125 16.046875 C 21.085938 16.078125 21.140625 16.078125 21.199219 16.046875 L 21.679688 15.785156 C 21.707031 15.769531 21.730469 15.746094 21.746094 15.71875 C 21.761719 15.691406 21.769531 15.660156 21.769531 15.628906 L 21.769531 15.105469 C 21.769531 15.070312 21.761719 15.042969 21.746094 15.015625 C 21.730469 14.988281 21.707031 14.964844 21.679688 14.949219 Z M 21.679688 14.949219 "/>
</g>
<g clip-path="url(#clip2)" clip-rule="nonzero">
<path style=" stroke:none;fill-rule:nonzero;fill:rgb(21.960784%,71.372549%,100%);fill-opacity:1;" d="M 19.542969 15.738281 L 19.0625 16 C 19.035156 16.015625 19.011719 16.039062 18.996094 16.066406 C 18.976562 16.09375 18.96875 16.121094 18.96875 16.15625 L 18.96875 16.679688 C 18.96875 16.714844 18.976562 16.742188 18.996094 16.769531 C 19.011719 16.796875 19.035156 16.820312 19.0625 16.835938 L 19.542969 17.097656 C 19.597656 17.128906 19.65625 17.128906 19.710938 17.097656 L 20.191406 16.835938 C 20.21875 16.820312 20.242188 16.796875 20.257812 16.769531 C 20.273438 16.742188 20.28125 16.714844 20.28125 16.679688 L 20.28125 16.15625 C 20.28125 16.121094 20.273438 16.09375 20.257812 16.066406 C 20.242188 16.039062 20.21875 16.015625 20.191406 16 L 19.710938 15.738281 C 19.65625 15.707031 19.597656 15.707031 19.542969 15.738281 Z M 19.542969 15.738281 "/>
</g>
<g clip-path="url(#clip3)" clip-rule="nonzero">
<path style=" stroke:none;fill-rule:nonzero;fill:rgb(21.960784%,71.372549%,100%);fill-opacity:1;" d="M 26.972656 14.6875 C 26.917969 14.65625 26.863281 14.65625 26.804688 14.6875 L 26.324219 14.949219 C 26.296875 14.964844 26.273438 14.988281 26.257812 15.015625 C 26.242188 15.042969 26.234375 15.070312 26.234375 15.105469 L 26.234375 15.628906 C 26.234375 15.660156 26.242188 15.691406 26.257812 15.71875 C 26.273438 15.746094 26.296875 15.769531 26.324219 15.785156 L 26.804688 16.046875 C 26.863281 16.078125 26.917969 16.078125 26.972656 16.046875 L 27.457031 15.785156 C 27.484375 15.769531 27.507812 15.746094 27.523438 15.71875 C 27.539062 15.691406 27.546875 15.660156 27.546875 15.628906 L 27.546875 15.105469 C 27.546875 15.070312 27.539062 15.042969 27.523438 15.015625 C 27.507812 14.988281 27.484375 14.964844 27.457031 14.949219 Z M 26.972656 14.6875 "/>
</g>
<g clip-path="url(#clip4)" clip-rule="nonzero">
<path style=" stroke:none;fill-rule:nonzero;fill:rgb(21.960784%,71.372549%,100%);fill-opacity:1;" d="M 28.945312 16 L 28.460938 15.738281 C 28.40625 15.707031 28.351562 15.707031 28.292969 15.738281 L 27.8125 16 C 27.785156 16.015625 27.761719 16.039062 27.746094 16.066406 C 27.730469 16.09375 27.722656 16.121094 27.722656 16.15625 L 27.722656 16.679688 C 27.722656 16.714844 27.730469 16.742188 27.746094 16.769531 C 27.761719 16.796875 27.785156 16.820312 27.8125 16.835938 L 28.292969 17.097656 C 28.351562 17.128906 28.40625 17.128906 28.460938 17.097656 L 28.945312 16.835938 C 28.972656 16.820312 28.992188 16.796875 29.011719 16.769531 C 29.027344 16.742188 29.035156 16.714844 29.035156 16.679688 L 29.035156 16.15625 C 29.035156 16.121094 29.027344 16.09375 29.011719 16.066406 C 28.992188 16.039062 28.972656 16.015625 28.945312 16 Z M 28.945312 16 "/>
</g>
<path style=" stroke:none;fill-rule:nonzero;fill:rgb(21.960784%,71.372549%,100%);fill-opacity:1;" d="M 23.347656 15.453125 L 23.347656 15.980469 C 23.347656 16.011719 23.355469 16.042969 23.371094 16.070312 C 23.386719 16.097656 23.410156 16.117188 23.4375 16.132812 L 23.917969 16.398438 C 23.972656 16.425781 24.03125 16.425781 24.085938 16.398438 L 24.566406 16.132812 C 24.59375 16.117188 24.617188 16.097656 24.632812 16.070312 C 24.652344 16.042969 24.660156 16.011719 24.660156 15.980469 L 24.660156 15.453125 C 24.660156 15.421875 24.652344 15.390625 24.632812 15.363281 C 24.617188 15.335938 24.59375 15.316406 24.566406 15.300781 L 24.085938 15.039062 C 24.03125 15.007812 23.972656 15.007812 23.917969 15.039062 L 23.4375 15.300781 C 23.410156 15.316406 23.386719 15.335938 23.371094 15.363281 C 23.355469 15.390625 23.347656 15.421875 23.347656 15.453125 Z M 23.347656 15.453125 "/>
<g clip-path="url(#clip5)" clip-rule="nonzero">
<path style=" stroke:none;fill-rule:nonzero;fill:rgb(21.960784%,71.372549%,100%);fill-opacity:1;" d="M 21.679688 24.761719 L 21.199219 24.5 C 21.140625 24.46875 21.085938 24.46875 21.03125 24.5 L 20.550781 24.761719 C 20.523438 24.777344 20.5 24.800781 20.484375 24.828125 C 20.464844 24.855469 20.457031 24.882812 20.457031 24.917969 L 20.457031 25.441406 C 20.457031 25.472656 20.464844 25.503906 20.484375 25.53125 C 20.5 25.558594 20.523438 25.582031 20.550781 25.597656 L 21.03125 25.859375 C 21.085938 25.890625 21.140625 25.890625 21.199219 25.859375 L 21.679688 25.597656 C 21.707031 25.582031 21.730469 25.558594 21.746094 25.53125 C 21.761719 25.503906 21.769531 25.472656 21.769531 25.441406 L 21.769531 24.917969 C 21.769531 24.882812 21.761719 24.855469 21.746094 24.828125 C 21.730469 24.800781 21.707031 24.777344 21.679688 24.761719 Z M 21.679688 24.761719 "/>
</g>
<g clip-path="url(#clip6)" clip-rule="nonzero">
<path style=" stroke:none;fill-rule:nonzero;fill:rgb(21.960784%,71.372549%,100%);fill-opacity:1;" d="M 20.191406 23.710938 L 19.710938 23.449219 C 19.65625 23.417969 19.597656 23.417969 19.542969 23.449219 L 19.0625 23.710938 C 19.035156 23.726562 19.011719 23.746094 18.996094 23.777344 C 18.976562 23.804688 18.96875 23.832031 18.96875 23.863281 L 18.96875 24.390625 C 18.96875 24.421875 18.976562 24.453125 18.996094 24.480469 C 19.011719 24.507812 19.035156 24.53125 19.0625 24.546875 L 19.542969 24.808594 C 19.597656 24.839844 19.65625 24.839844 19.710938 24.808594 L 20.191406 24.546875 C 20.21875 24.53125 20.242188 24.507812 20.257812 24.480469 C 20.273438 24.453125 20.28125 24.421875 20.28125 24.390625 L 20.28125 23.863281 C 20.28125 23.832031 20.273438 23.804688 20.257812 23.777344 C 20.242188 23.746094 20.21875 23.726562 20.191406 23.710938 Z M 20.191406 23.710938 "/>
</g>
<g clip-path="url(#clip7)" clip-rule="nonzero">
<path style=" stroke:none;fill-rule:nonzero;fill:rgb(21.960784%,71.372549%,100%);fill-opacity:1;" d="M 27.457031 24.761719 L 26.972656 24.5 C 26.917969 24.46875 26.863281 24.46875 26.804688 24.5 L 26.324219 24.761719 C 26.296875 24.777344 26.273438 24.800781 26.257812 24.828125 C 26.242188 24.855469 26.234375 24.882812 26.234375 24.917969 L 26.234375 25.441406 C 26.234375 25.472656 26.242188 25.503906 26.257812 25.53125 C 26.273438 25.558594 26.296875 25.582031 26.324219 25.597656 L 26.804688 25.859375 C 26.863281 25.890625 26.917969 25.890625 26.972656 25.859375 L 27.457031 25.597656 C 27.484375 25.582031 27.507812 25.558594 27.523438 25.53125 C 27.539062 25.503906 27.546875 25.472656 27.546875 25.441406 L 27.546875 24.917969 C 27.546875 24.882812 27.539062 24.855469 27.523438 24.828125 C 27.507812 24.800781 27.484375 24.777344 27.457031 24.761719 Z M 27.457031 24.761719 "/>
</g>
<g clip-path="url(#clip8)" clip-rule="nonzero">
<path style=" stroke:none;fill-rule:nonzero;fill:rgb(21.960784%,71.372549%,100%);fill-opacity:1;" d="M 28.945312 23.710938 L 28.460938 23.449219 C 28.40625 23.417969 28.351562 23.417969 28.292969 23.449219 L 27.8125 23.710938 C 27.785156 23.726562 27.761719 23.746094 27.746094 23.777344 C 27.730469 23.804688 27.722656 23.832031 27.722656 23.863281 L 27.722656 24.390625 C 27.722656 24.421875 27.730469 24.453125 27.746094 24.480469 C 27.761719 24.507812 27.785156 24.53125 27.8125 24.546875 L 28.292969 24.808594 C 28.351562 24.839844 28.40625 24.839844 28.460938 24.808594 L 28.945312 24.546875 C 28.972656 24.53125 28.992188 24.507812 29.011719 24.480469 C 29.027344 24.453125 29.035156 24.421875 29.035156 24.390625 L 29.035156 23.863281 C 29.035156 23.832031 29.027344 23.804688 29.011719 23.777344 C 28.992188 23.746094 28.972656 23.726562 28.945312 23.710938 Z M 28.945312 23.710938 "/>
</g>
<path style=" stroke:none;fill-rule:nonzero;fill:rgb(21.960784%,71.372549%,100%);fill-opacity:1;" d="M 24.566406 24.414062 L 24.085938 24.148438 C 24.03125 24.117188 23.972656 24.117188 23.917969 24.148438 L 23.4375 24.414062 C 23.410156 24.425781 23.386719 24.449219 23.371094 24.476562 C 23.355469 24.503906 23.347656 24.535156 23.347656 24.566406 L 23.347656 25.09375 C 23.347656 25.125 23.355469 25.152344 23.371094 25.179688 C 23.386719 25.210938 23.410156 25.230469 23.4375 25.246094 L 23.917969 25.507812 C 23.972656 25.539062 24.03125 25.539062 24.085938 25.507812 L 24.566406 25.246094 C 24.59375 25.230469 24.617188 25.210938 24.632812 25.179688 C 24.652344 25.152344 24.660156 25.125 24.660156 25.09375 L 24.660156 24.566406 C 24.660156 24.535156 24.652344 24.503906 24.632812 24.476562 C 24.617188 24.449219 24.59375 24.425781 24.566406 24.414062 Z M 24.566406 24.414062 "/>
<path style=" stroke:none;fill-rule:nonzero;fill:rgb(21.960784%,71.372549%,100%);fill-opacity:1;" d="M 23.828125 16.738281 L 23.828125 17.675781 C 23.945312 17.632812 24.0625 17.632812 24.175781 17.675781 L 24.175781 16.738281 C 24.0625 16.78125 23.945312 16.78125 23.828125 16.738281 Z M 23.828125 16.738281 "/>
<path style=" stroke:none;fill-rule:nonzero;fill:rgb(21.960784%,71.372549%,100%);fill-opacity:1;" d="M 26.714844 19.398438 C 26.761719 19.398438 26.804688 19.386719 26.847656 19.371094 C 26.890625 19.351562 26.929688 19.328125 26.964844 19.292969 C 26.996094 19.261719 27.019531 19.222656 27.039062 19.179688 C 27.054688 19.136719 27.066406 19.09375 27.066406 19.046875 L 27.066406 16.386719 C 26.949219 16.429688 26.832031 16.429688 26.714844 16.386719 L 26.714844 19.046875 L 26.421875 19.046875 C 26.441406 19.101562 26.453125 19.160156 26.453125 19.222656 L 26.453125 19.398438 Z M 26.714844 19.398438 "/>
<path style=" stroke:none;fill-rule:nonzero;fill:rgb(21.960784%,71.372549%,100%);fill-opacity:1;" d="M 26.011719 19.066406 L 24.085938 18.015625 C 24.03125 17.984375 23.972656 17.984375 23.917969 18.015625 L 21.992188 19.066406 C 21.964844 19.082031 21.941406 19.105469 21.925781 19.132812 C 21.910156 19.160156 21.902344 19.191406 21.902344 19.222656 L 21.902344 21.324219 C 21.902344 21.355469 21.910156 21.386719 21.925781 21.414062 C 21.941406 21.441406 21.964844 21.464844 21.992188 21.476562 L 23.917969 22.53125 C 23.972656 22.558594 24.03125 22.558594 24.085938 22.53125 L 26.011719 21.476562 C 26.039062 21.464844 26.0625 21.441406 26.078125 21.414062 C 26.09375 21.386719 26.101562 21.355469 26.101562 21.324219 L 26.101562 19.222656 C 26.101562 19.191406 26.09375 19.160156 26.078125 19.132812 C 26.0625 19.105469 26.039062 19.082031 26.011719 19.066406 Z M 23.738281 19.289062 L 23.039062 19.675781 L 23.039062 20.359375 C 23.039062 20.382812 23.035156 20.40625 23.027344 20.429688 C 23.015625 20.449219 23.003906 20.46875 22.988281 20.484375 C 22.972656 20.5 22.953125 20.511719 22.933594 20.523438 C 22.910156 20.53125 22.886719 20.535156 22.863281 20.535156 C 22.839844 20.535156 22.820312 20.53125 22.796875 20.523438 C 22.777344 20.511719 22.757812 20.5 22.742188 20.484375 C 22.722656 20.46875 22.710938 20.449219 22.703125 20.429688 C 22.695312 20.40625 22.691406 20.382812 22.691406 20.359375 L 22.691406 19.570312 C 22.691406 19.539062 22.699219 19.511719 22.714844 19.484375 C 22.730469 19.457031 22.753906 19.433594 22.78125 19.417969 L 23.566406 18.980469 C 23.585938 18.96875 23.609375 18.960938 23.632812 18.960938 C 23.65625 18.957031 23.679688 18.960938 23.699219 18.964844 C 23.722656 18.972656 23.742188 18.984375 23.761719 18.996094 C 23.78125 19.011719 23.792969 19.027344 23.804688 19.050781 C 23.816406 19.070312 23.824219 19.089844 23.828125 19.113281 C 23.828125 19.136719 23.828125 19.160156 23.820312 19.183594 C 23.816406 19.203125 23.804688 19.226562 23.789062 19.242188 C 23.773438 19.261719 23.757812 19.277344 23.738281 19.289062 Z M 23.738281 19.289062 "/>
<path style=" stroke:none;fill-rule:nonzero;fill:rgb(21.960784%,71.372549%,100%);fill-opacity:1;" d="M 21.113281 16.417969 C 21.054688 16.417969 20.996094 16.40625 20.941406 16.386719 L 20.941406 19.046875 C 20.941406 19.09375 20.949219 19.136719 20.964844 19.179688 C 20.984375 19.222656 21.007812 19.261719 21.042969 19.292969 C 21.074219 19.328125 21.113281 19.351562 21.15625 19.371094 C 21.199219 19.386719 21.242188 19.398438 21.289062 19.398438 L 21.550781 19.398438 L 21.550781 19.222656 C 21.550781 19.160156 21.5625 19.101562 21.582031 19.046875 L 21.289062 19.046875 L 21.289062 16.386719 C 21.234375 16.40625 21.175781 16.417969 21.113281 16.417969 Z M 21.113281 16.417969 "/>
<path style=" stroke:none;fill-rule:nonzero;fill:rgb(21.960784%,71.372549%,100%);fill-opacity:1;" d="M 19.800781 19.570312 L 19.800781 17.4375 C 19.683594 17.480469 19.570312 17.480469 19.453125 17.4375 L 19.453125 19.570312 C 19.453125 19.605469 19.453125 19.640625 19.460938 19.675781 C 19.46875 19.707031 19.476562 19.742188 19.492188 19.773438 C 19.503906 19.804688 19.523438 19.835938 19.539062 19.863281 C 19.558594 19.894531 19.582031 19.917969 19.605469 19.945312 C 19.628906 19.96875 19.65625 19.988281 19.683594 20.007812 C 19.714844 20.027344 19.742188 20.042969 19.777344 20.058594 C 19.808594 20.070312 19.839844 20.082031 19.875 20.085938 C 19.910156 20.09375 19.941406 20.097656 19.976562 20.097656 L 21.550781 20.097656 L 21.550781 19.746094 L 19.976562 19.746094 C 19.953125 19.746094 19.929688 19.742188 19.910156 19.734375 C 19.886719 19.726562 19.871094 19.710938 19.851562 19.695312 C 19.835938 19.679688 19.824219 19.660156 19.816406 19.640625 C 19.804688 19.617188 19.800781 19.59375 19.800781 19.570312 Z M 19.800781 19.570312 "/>
<path style=" stroke:none;fill-rule:nonzero;fill:rgb(21.960784%,71.372549%,100%);fill-opacity:1;" d="M 28.554688 17.4375 C 28.4375 17.480469 28.320312 17.480469 28.203125 17.4375 L 28.203125 19.570312 C 28.203125 19.59375 28.199219 19.617188 28.191406 19.640625 C 28.179688 19.660156 28.167969 19.679688 28.152344 19.695312 C 28.136719 19.710938 28.117188 19.726562 28.09375 19.734375 C 28.074219 19.742188 28.050781 19.746094 28.027344 19.746094 L 26.453125 19.746094 L 26.453125 20.097656 L 28.027344 20.097656 C 28.0625 20.097656 28.097656 20.09375 28.128906 20.085938 C 28.164062 20.082031 28.195312 20.070312 28.230469 20.058594 C 28.261719 20.042969 28.289062 20.027344 28.320312 20.007812 C 28.347656 19.988281 28.375 19.96875 28.398438 19.945312 C 28.421875 19.917969 28.445312 19.894531 28.464844 19.863281 C 28.484375 19.835938 28.5 19.804688 28.511719 19.773438 C 28.527344 19.742188 28.535156 19.707031 28.542969 19.675781 C 28.550781 19.640625 28.554688 19.605469 28.554688 19.570312 Z M 28.554688 17.4375 "/>
<path style=" stroke:none;fill-rule:nonzero;fill:rgb(21.960784%,71.372549%,100%);fill-opacity:1;" d="M 28.378906 23.078125 C 28.4375 23.078125 28.496094 23.085938 28.554688 23.109375 L 28.554688 20.972656 C 28.554688 20.941406 28.550781 20.90625 28.542969 20.871094 C 28.535156 20.835938 28.527344 20.804688 28.511719 20.773438 C 28.5 20.742188 28.484375 20.710938 28.464844 20.683594 C 28.445312 20.652344 28.421875 20.628906 28.398438 20.601562 C 28.375 20.578125 28.347656 20.554688 28.320312 20.535156 C 28.289062 20.519531 28.261719 20.5 28.230469 20.488281 C 28.195312 20.476562 28.164062 20.464844 28.128906 20.457031 C 28.097656 20.453125 28.0625 20.449219 28.027344 20.449219 L 26.453125 20.449219 L 26.453125 20.800781 L 28.027344 20.800781 C 28.050781 20.800781 28.074219 20.804688 28.09375 20.8125 C 28.117188 20.820312 28.136719 20.835938 28.152344 20.851562 C 28.167969 20.867188 28.179688 20.886719 28.191406 20.90625 C 28.199219 20.929688 28.203125 20.949219 28.203125 20.972656 L 28.203125 23.109375 C 28.257812 23.085938 28.316406 23.078125 28.378906 23.078125 Z M 28.378906 23.078125 "/>
<path style=" stroke:none;fill-rule:nonzero;fill:rgb(21.960784%,71.372549%,100%);fill-opacity:1;" d="M 21.550781 20.449219 L 19.976562 20.449219 C 19.941406 20.449219 19.910156 20.453125 19.875 20.457031 C 19.839844 20.464844 19.808594 20.476562 19.777344 20.488281 C 19.742188 20.5 19.714844 20.519531 19.683594 20.535156 C 19.65625 20.554688 19.628906 20.578125 19.605469 20.601562 C 19.582031 20.628906 19.558594 20.652344 19.539062 20.683594 C 19.523438 20.710938 19.503906 20.742188 19.492188 20.773438 C 19.476562 20.804688 19.46875 20.835938 19.460938 20.871094 C 19.453125 20.90625 19.453125 20.941406 19.453125 20.972656 L 19.453125 23.109375 C 19.570312 23.066406 19.683594 23.066406 19.800781 23.109375 L 19.800781 20.972656 C 19.800781 20.949219 19.804688 20.929688 19.816406 20.90625 C 19.824219 20.886719 19.835938 20.867188 19.851562 20.851562 C 19.871094 20.835938 19.886719 20.820312 19.910156 20.8125 C 19.929688 20.804688 19.953125 20.800781 19.976562 20.800781 L 21.550781 20.800781 Z M 21.550781 20.449219 "/>
<path style=" stroke:none;fill-rule:nonzero;fill:rgb(21.960784%,71.372549%,100%);fill-opacity:1;" d="M 26.890625 24.128906 C 26.949219 24.128906 27.007812 24.136719 27.066406 24.160156 L 27.066406 21.5 C 27.066406 21.453125 27.054688 21.410156 27.039062 21.367188 C 27.019531 21.324219 26.996094 21.285156 26.964844 21.253906 C 26.929688 21.21875 26.890625 21.195312 26.847656 21.175781 C 26.804688 21.15625 26.761719 21.148438 26.714844 21.148438 L 26.453125 21.148438 L 26.453125 21.324219 C 26.453125 21.382812 26.441406 21.441406 26.421875 21.5 L 26.714844 21.5 L 26.714844 24.160156 C 26.773438 24.136719 26.832031 24.128906 26.890625 24.128906 Z M 26.890625 24.128906 "/>
<path style=" stroke:none;fill-rule:nonzero;fill:rgb(21.960784%,71.372549%,100%);fill-opacity:1;" d="M 24.175781 23.808594 L 24.175781 22.871094 C 24.0625 22.914062 23.945312 22.914062 23.828125 22.871094 L 23.828125 23.808594 C 23.945312 23.765625 24.0625 23.765625 24.175781 23.808594 Z M 24.175781 23.808594 "/>
<path style=" stroke:none;fill-rule:nonzero;fill:rgb(21.960784%,71.372549%,100%);fill-opacity:1;" d="M 21.289062 24.160156 L 21.289062 21.5 L 21.582031 21.5 C 21.5625 21.441406 21.550781 21.382812 21.550781 21.324219 L 21.550781 21.148438 L 21.289062 21.148438 C 21.242188 21.148438 21.199219 21.15625 21.15625 21.175781 C 21.113281 21.195312 21.074219 21.21875 21.042969 21.253906 C 21.007812 21.285156 20.984375 21.324219 20.964844 21.367188 C 20.949219 21.410156 20.941406 21.453125 20.941406 21.5 L 20.941406 24.160156 C 21.054688 24.117188 21.171875 24.117188 21.289062 24.160156 Z M 21.289062 24.160156 "/>
</g>
</svg>
